<?xml version="1.0" standalone="no"?>
<!DOCTYPE svg PUBLIC "-//W3C//DTD SVG 20010904//EN"
 "http://www.w3.org/TR/2001/REC-SVG-20010904/DTD/svg10.dtd">
<svg version="1.0" xmlns="http://www.w3.org/2000/svg" fill="white"
 width="100" height="100" viewBox="0 0 50.000000 50.000000"
 preserveAspectRatio="xMidYMid meet">

<g transform="translate(0.000000,50.000000) scale(0.100000,-0.100000)" stroke="none">
<path d="M132 488 c-7 -7 -12 -17 -12 -24 0 -6 -7 -14 -15 -18 -8 -3 -15 -11
-15 -19 0 -14 63 -78 92 -93 15 -8 10 -19 -37 -94 -30 -47 -55 -91 -55 -98 0
-24 31 -25 56 -2 31 30 30 26 -6 -55 -36 -81 -37 -85 -5 -85 22 0 38 19 103
120 42 65 82 127 88 137 9 15 14 16 27 5 12 -11 14 -19 6 -39 -22 -58 23 -75
47 -18 20 49 18 57 -25 106 l-38 44 23 18 c42 32 20 97 -33 97 -28 0 -56 -34
-51 -63 5 -23 4 -24 -46 -14 -61 11 -63 12 -42 32 19 19 20 29 6 56 -12 21
-50 25 -68 7z m56 -31 c4 -20 -25 -34 -40 -19 -15 15 -1 44 19 40 10 -2 19
-11 21 -21z m176 -29 c8 -14 7 -21 -6 -34 -30 -30 -75 9 -48 42 16 18 39 15
54 -8z m-144 -53 c51 -8 118 -40 138 -64 42 -53 45 -60 32 -91 -16 -37 -25
-33 -10 4 9 23 6 30 -16 51 -15 14 -30 23 -34 20 -4 -2 -44 -63 -90 -134 -73
-115 -110 -165 -110 -148 0 3 23 52 50 108 28 56 48 105 45 108 -3 2 -28 -17
-55 -44 -27 -27 -52 -46 -55 -44 -2 3 20 46 51 95 71 112 72 114 43 114 -28 0
-35 5 -74 50 l-30 34 35 -26 c20 -14 56 -29 80 -33z"/>
</g>
</svg>
