<?xml version="1.0" standalone="no"?>
<!DOCTYPE svg PUBLIC "-//W3C//DTD SVG 20010904//EN"
 "http://www.w3.org/TR/2001/REC-SVG-20010904/DTD/svg10.dtd">
<svg version="1.0" xmlns="http://www.w3.org/2000/svg" fill="white"
 width="100" height="100" viewBox="0 0 50.000000 50.000000"
 preserveAspectRatio="xMidYMid meet">

<g transform="translate(0.000000,50.000000) scale(0.100000,-0.100000)"
stroke="none">
<path d="M201 466 c-30 -16 -50 -52 -51 -88 0 -23 -4 -28 -25 -28 -24 0 -30
-10 -27 -50 4 -66 2 -230 -4 -252 -6 -27 -5 -28 30 -28 l36 0 0 53 c1 40 3 48
11 35 8 -14 24 -18 79 -18 55 0 71 4 79 18 8 13 10 5 11 -35 l0 -53 36 0 c35
0 36 1 30 28 -6 22 -8 186 -4 252 3 40 -3 50 -27 50 -20 0 -25 5 -25 25 0 79
-81 129 -149 91z m104 -31 c16 -15 25 -36 25 -55 0 -25 -4 -30 -25 -30 -22 0
-25 4 -25 35 0 32 -2 35 -30 35 -20 0 -30 -5 -30 -15 0 -9 -9 -15 -25 -15 -32
0 -32 14 0 45 15 16 36 25 55 25 19 0 40 -9 55 -25z m-45 -60 c0 -14 -4 -25
-10 -25 -5 0 -10 11 -10 25 0 14 5 25 10 25 6 0 10 -11 10 -25z m-40 -15 c0
-5 -11 -10 -25 -10 -14 0 -25 5 -25 10 0 6 11 10 25 10 14 0 25 -4 25 -10z
m-80 -146 c0 -74 -4 -113 -10 -109 -6 4 -10 53 -10 116 0 66 4 109 10 109 6 0
10 -45 10 -116z m200 19 c0 -72 -3 -94 -11 -83 -8 11 -12 12 -16 3 -2 -7 -11
-13 -19 -13 -11 0 -14 16 -14 65 l0 65 -30 0 -30 0 0 -65 0 -65 -30 0 -30 0 0
95 0 95 90 0 90 0 0 -97z m40 -12 c0 -63 -4 -112 -10 -116 -6 -4 -10 35 -10
109 0 71 4 116 10 116 6 0 10 -43 10 -109z m-120 -26 c0 -30 -4 -55 -10 -55
-5 0 -10 25 -10 55 0 30 5 55 10 55 6 0 10 -25 10 -55z m23 -82 c-18 -2 -48
-2 -65 0 -18 2 -4 4 32 4 36 0 50 -2 33 -4z m-143 -53 c0 -11 -7 -20 -15 -20
-17 0 -18 2 -9 24 9 23 24 20 24 -4z m244 4 c9 -22 8 -24 -9 -24 -8 0 -15 9
-15 20 0 24 15 27 24 4z"/>
<path d="M290 370 c0 -5 5 -10 10 -10 6 0 10 5 10 10 0 6 -4 10 -10 10 -5 0
-10 -4 -10 -10z"/>
<path d="M180 300 c0 -6 30 -10 70 -10 40 0 70 4 70 10 0 6 -30 10 -70 10 -40
0 -70 -4 -70 -10z"/>
</g>
</svg>
